Hanif_Deep_7_5_grf.mot
version=1
nRows=63
nColumns=19
inDegrees=yes
endheader
time	right_ground_force_vx	right_ground_force_vy	right_ground_force_vz	right_ground_force_px	right_ground_force_py	right_ground_force_pz	right_ground_torque_x	right_ground_torque_y	right_ground_torque_z	left_ground_force_vx	left_ground_force_vy	left_ground_force_vz	left_ground_force_px	left_ground_force_py	left_ground_force_pz	left_ground_torque_x	left_ground_torque_y	left_ground_torque_z
0.200000	3.546060	261.359000	50.437300	0.189198	0.000000	-1.439510	-17.350200	2.870510	-2.420010	-10.345500	326.454000	-51.516100	0.237450	0.000000	-1.025290	40.045500	-0.686434	12.838100
0.205000	3.459090	262.049000	50.518600	0.189880	0.000000	-1.438520	-17.653900	2.960900	-2.224810	-10.222400	324.271000	-51.060500	0.238309	0.000000	-1.026210	40.076500	-0.681042	13.036000
0.210000	3.356460	263.962000	50.620600	0.189881	0.000000	-1.439170	-17.614700	2.839690	-2.267640	-10.141000	323.874000	-51.052200	0.238829	0.000000	-1.026210	40.026900	-0.715149	13.198000
0.215000	3.452920	263.934000	50.704300	0.190446	0.000000	-1.438010	-17.916600	2.871360	-2.108140	-10.752700	324.656000	-50.854300	0.238910	0.000000	-1.025710	39.969100	-0.664197	13.252900
0.220000	3.552540	263.203000	51.150900	0.189794	0.000000	-1.437360	-18.039200	2.752760	-2.300010	-10.225000	323.918000	-51.230000	0.238942	0.000000	-1.026510	40.130100	-0.661245	13.233900
0.225000	3.914310	265.410000	51.330000	0.190075	0.000000	-1.438640	-17.848500	2.814800	-2.239380	-10.483400	322.807000	-50.766300	0.239220	0.000000	-1.026420	39.966100	-0.556622	13.264500
0.230000	3.658790	265.041000	51.421900	0.190584	0.000000	-1.438170	-17.948200	2.807630	-2.093010	-10.117100	322.794000	-51.133700	0.240191	0.000000	-1.026160	39.877300	-0.606573	13.592300
0.235000	4.721120	265.767000	51.855800	0.189957	0.000000	-1.438450	-17.917000	2.794650	-2.287540	-10.103700	321.742000	-50.947100	0.241045	0.000000	-1.027160	40.069100	-0.568382	13.825600
0.240000	4.728970	266.141000	51.763900	0.190139	0.000000	-1.438550	-17.911900	2.976050	-2.206880	-10.747500	324.636000	-50.845700	0.239943	0.000000	-1.025410	39.868100	-0.524129	13.573100
0.245000	4.547970	267.977000	52.129200	0.190411	0.000000	-1.438400	-18.080800	2.829320	-2.176360	-10.576000	322.078000	-51.369400	0.240842	0.000000	-1.026290	39.837300	-0.468402	13.771800
0.250000	4.108430	266.914000	52.054600	0.190198	0.000000	-1.437970	-18.129000	2.751380	-2.233610	-11.539100	321.382000	-50.634900	0.240706	0.000000	-1.025810	39.607600	-0.401609	13.693500
0.255000	4.368070	268.047000	51.699100	0.189945	0.000000	-1.439620	-17.758800	2.857890	-2.300080	-10.754900	323.202000	-50.667600	0.240028	0.000000	-1.025010	39.560700	-0.474744	13.535300
0.260000	4.572370	267.289000	52.222300	0.190270	0.000000	-1.438960	-17.885300	2.792530	-2.214400	-10.406100	323.899000	-51.214800	0.240066	0.000000	-1.025750	39.880400	-0.490594	13.581400
0.265000	4.551460	267.648000	52.316300	0.189951	0.000000	-1.438850	-17.938900	2.874670	-2.290330	-11.112000	324.251000	-51.010200	0.239528	0.000000	-1.025410	39.828200	-0.578069	13.439200
0.270000	4.466960	268.406000	52.232300	0.190239	0.000000	-1.439620	-17.783100	2.892720	-2.213860	-10.146000	325.000000	-51.061900	0.239259	0.000000	-1.025320	39.875000	-0.578303	13.359900
0.275000	4.281540	268.388000	52.142300	0.190720	0.000000	-1.439080	-17.928200	2.764780	-2.103290	-10.315700	322.853000	-50.862900	0.239430	0.000000	-1.025330	39.618900	-0.662966	13.349300
0.280000	4.278940	268.378000	52.065500	0.190262	0.000000	-1.439270	-17.876500	2.787970	-2.226370	-10.578900	324.265000	-50.855300	0.238953	0.000000	-1.024780	39.618400	-0.737580	13.259600
0.285000	4.113200	268.453000	52.143900	0.190199	0.000000	-1.438340	-18.130800	2.847840	-2.231170	-10.127000	323.179000	-50.971100	0.238421	0.000000	-1.024900	39.518300	-0.736393	13.036400
0.290000	4.632600	268.770000	52.234300	0.189761	0.000000	-1.438430	-18.127600	2.831740	-2.366480	-9.535860	323.170000	-50.825400	0.237145	0.000000	-1.023520	39.065300	-0.968460	12.634100
0.295000	4.105400	270.635000	52.328300	0.189579	0.000000	-1.439240	-18.035800	2.876110	-2.422620	-9.884730	322.505000	-50.653200	0.236087	0.000000	-1.023890	39.109500	-0.967006	12.264900
0.300000	4.620030	270.934000	52.048700	0.189573	0.000000	-1.438960	-18.131100	2.814210	-2.448020	-9.362920	322.088000	-51.205100	0.235509	0.000000	-1.024280	39.178400	-1.070550	12.076800
0.305000	4.787400	270.573000	52.043800	0.189418	0.000000	-1.438300	-18.282200	2.876720	-2.478290	-8.889710	321.772000	-51.432600	0.233834	0.000000	-1.022460	38.547200	-1.145500	11.517900
0.310000	5.053290	270.954000	52.047700	0.189425	0.000000	-1.438750	-18.183000	2.958080	-2.468230	-8.601630	320.250000	-50.843200	0.232152	0.000000	-1.023700	38.762800	-1.314400	10.929800
0.315000	4.965040	272.082000	51.675600	0.189617	0.000000	-1.439240	-18.125500	2.919780	-2.435250	-8.347230	322.153000	-50.968400	0.230668	0.000000	-1.022380	38.561100	-1.436840	10.512100
0.320000	5.226140	272.372000	51.767000	0.189132	0.000000	-1.438780	-18.269900	2.904260	-2.581890	-7.840760	324.642000	-50.911800	0.229193	0.000000	-1.021340	38.515400	-1.575190	10.102800
0.325000	5.568970	272.021000	51.744300	0.187802	0.000000	-1.437780	-18.513900	3.077800	-2.924910	-7.477550	324.687000	-50.951500	0.228178	0.000000	-1.020570	38.263500	-1.562520	9.757650
0.330000	5.677640	272.725000	51.930900	0.187861	0.000000	-1.438820	-18.278400	3.078950	-2.917040	-7.359080	325.750000	-52.388100	0.226107	0.000000	-1.019750	38.121900	-1.731980	9.140930
0.335000	5.582890	271.672000	51.395100	0.187849	0.000000	-1.438470	-18.305000	2.978630	-2.927000	-6.887780	324.699000	-52.053900	0.225872	0.000000	-1.021170	38.451900	-1.765810	9.029990
0.340000	5.949240	270.882000	51.480200	0.187706	0.000000	-1.438610	-18.210400	3.045220	-2.947940	-6.655920	325.354000	-52.349000	0.224764	0.000000	-1.019890	38.109400	-1.849320	8.688540
0.345000	6.303050	271.230000	51.114100	0.187627	0.000000	-1.439510	-17.988600	3.043490	-2.980620	-5.625010	325.702000	-53.000100	0.224428	0.000000	-1.018520	37.692200	-1.853850	8.574210
0.350000	6.151360	268.246000	50.652200	0.186383	0.000000	-1.438880	-17.958900	3.141160	-3.267640	-5.559340	328.195000	-53.498000	0.222612	0.000000	-1.016810	37.414700	-1.911150	8.032950
0.355000	6.229070	270.079000	50.907800	0.186570	0.000000	-1.439000	-18.050300	3.057570	-3.258450	-5.442860	323.937000	-53.346500	0.222515	0.000000	-1.017820	37.257900	-1.958110	7.916670
0.360000	6.511420	267.116000	50.557100	0.185994	0.000000	-1.438630	-17.948000	3.107260	-3.370180	-5.044450	326.393000	-53.643600	0.221345	0.000000	-1.016840	37.215500	-2.038350	7.584490
0.365000	6.509730	267.868000	50.747100	0.185834	0.000000	-1.438100	-18.143400	3.019060	-3.442480	-4.949660	325.326000	-54.350900	0.220441	0.000000	-1.016210	36.888500	-2.081570	7.277050
0.370000	6.330550	267.136000	50.551000	0.186006	0.000000	-1.438860	-17.888600	3.062040	-3.373030	-4.621350	323.469000	-54.567100	0.219637	0.000000	-1.016570	36.790000	-2.106380	6.976690
0.375000	7.123010	267.398000	49.842800	0.185955	0.000000	-1.439200	-17.812900	3.003030	-3.414980	-4.175950	323.131000	-54.767100	0.219198	0.000000	-1.015650	36.447800	-2.178180	6.830530
0.380000	7.331560	266.688000	50.776500	0.185883	0.000000	-1.438120	-18.052900	3.062990	-3.412850	-3.466470	322.037000	-54.882700	0.219367	0.000000	-1.015480	36.260800	-2.176660	6.855320
0.385000	7.206220	266.258000	49.996600	0.186347	0.000000	-1.438120	-18.025800	2.931610	-3.304780	-3.747740	321.675000	-54.790400	0.217683	0.000000	-1.015060	36.090100	-2.196140	6.298900
0.390000	6.133690	266.697000	50.263900	0.187246	0.000000	-1.439410	-17.714100	2.966040	-3.040350	-3.642330	322.745000	-54.981000	0.217904	0.000000	-1.014620	36.065400	-2.129520	6.378250
0.395000	6.755250	264.124000	49.638300	0.187204	0.000000	-1.438740	-17.718900	2.859720	-3.046910	-3.316280	323.453000	-54.986600	0.217042	0.000000	-1.014840	36.211900	-2.223950	6.112600
0.400000	5.888780	261.995000	49.828300	0.186846	0.000000	-1.437860	-17.812100	2.805970	-3.113470	-3.024540	323.826000	-55.113300	0.217118	0.000000	-1.014590	36.170000	-2.359400	6.162780
0.405000	5.833170	263.482000	49.191200	0.188454	0.000000	-1.438050	-17.866500	2.607230	-2.735490	-2.868210	324.936000	-55.275200	0.217352	0.000000	-1.013780	36.026600	-2.288760	6.244930
0.410000	5.356000	265.630000	48.935100	0.188104	0.000000	-1.438140	-17.991100	2.606750	-2.853950	-3.218840	326.418000	-55.355800	0.216856	0.000000	-1.014180	36.327500	-2.360090	6.121270
0.415000	5.197490	263.784000	48.844900	0.189264	0.000000	-1.438200	-17.851200	2.597550	-2.513270	-2.506960	329.674000	-55.387000	0.217190	0.000000	-1.014890	36.914100	-2.309960	6.262150
0.420000	4.995830	265.880000	48.746400	0.190269	0.000000	-1.437490	-18.181600	2.659110	-2.249470	-2.682870	329.329000	-55.211400	0.217109	0.000000	-1.015010	36.918200	-2.327430	6.233530
0.425000	4.831780	263.469000	48.485700	0.189827	0.000000	-1.437400	-18.045100	2.344880	-2.400560	-2.497730	332.972000	-55.477300	0.217031	0.000000	-1.014560	37.173400	-2.379170	6.271010
0.430000	4.988090	263.752000	48.365900	0.190262	0.000000	-1.436010	-18.430300	2.433420	-2.272550	-2.578250	332.296000	-55.629800	0.217418	0.000000	-1.014070	36.934300	-2.329010	6.387960
0.435000	5.337460	263.080000	47.824700	0.190662	0.000000	-1.435900	-18.408400	2.511080	-2.149470	-2.812440	331.877000	-54.669600	0.217754	0.000000	-1.014200	36.937400	-2.388070	6.497080
0.440000	5.437390	262.734000	47.632800	0.191500	0.000000	-1.437110	-18.069100	2.310500	-1.955620	-2.734650	329.840000	-54.849500	0.218560	0.000000	-1.013650	36.525900	-2.295810	6.723190
0.445000	5.417520	263.143000	47.547400	0.191383	0.000000	-1.436080	-18.366500	2.365910	-1.982500	-3.371760	331.517000	-55.507600	0.218626	0.000000	-1.013970	36.824600	-2.213390	6.781030
0.450000	5.337890	263.813000	47.532800	0.191881	0.000000	-1.435750	-18.502600	2.299330	-1.864830	-3.094960	331.922000	-55.358200	0.219836	0.000000	-1.012630	36.421900	-2.163940	7.184580
0.455000	4.905850	262.379000	47.382900	0.192418	0.000000	-1.434960	-18.607100	2.369640	-1.689220	-3.575000	331.905000	-55.069900	0.219956	0.000000	-1.012580	36.408300	-2.049680	7.211030
0.460000	5.410060	263.826000	47.180100	0.193661	0.000000	-1.435950	-18.449300	2.202030	-1.399790	-4.096910	329.670000	-55.228900	0.220101	0.000000	-1.013320	36.412000	-2.013210	7.225780
0.465000	4.722780	261.712000	46.910900	0.193583	0.000000	-1.435660	-18.382700	2.125450	-1.411830	-4.637940	328.724000	-55.907200	0.221094	0.000000	-1.013510	36.378200	-1.915660	7.547680
0.470000	4.951700	263.038000	46.548000	0.193531	0.000000	-1.436790	-18.179500	2.062990	-1.450400	-4.735100	327.546000	-55.285600	0.220855	0.000000	-1.012910	36.053000	-1.884430	7.431540
0.475000	4.460780	259.086000	46.904800	0.195023	0.000000	-1.433970	-18.637400	1.975430	-1.032250	-5.360860	327.105000	-55.436200	0.221179	0.000000	-1.012360	35.829300	-1.731250	7.519460
0.480000	3.545380	260.085000	46.038100	0.194160	0.000000	-1.435000	-18.448800	1.837210	-1.285850	-5.867790	325.683000	-54.790100	0.221449	0.000000	-1.013310	35.989800	-1.741850	7.585260
0.485000	3.503530	257.635000	45.432000	0.196170	0.000000	-1.434370	-18.435100	1.796810	-0.744734	-6.044700	324.641000	-54.314600	0.221930	0.000000	-1.012730	35.685400	-1.559820	7.690750
0.490000	2.927610	256.489000	45.838700	0.197429	0.000000	-1.432420	-18.856000	1.682080	-0.418340	-6.229570	321.424000	-53.251700	0.222430	0.000000	-1.013380	35.542300	-1.454620	7.762290
0.495000	2.166140	258.773000	44.930900	0.197724	0.000000	-1.434030	-18.612900	1.594580	-0.357052	-6.548970	319.224000	-52.668900	0.222969	0.000000	-1.013700	35.409000	-1.541970	7.905740
0.500000	1.372120	256.158000	44.463500	0.199865	0.000000	-1.432000	-18.948200	1.420030	0.193364	-6.283380	319.836000	-52.858000	0.222751	0.000000	-1.012750	35.167600	-1.527820	7.841760
0.505000	0.782596	255.456000	43.740500	0.200540	0.000000	-1.431560	-19.011700	1.221220	0.340994	-6.430220	316.936000	-52.286800	0.224156	0.000000	-1.013820	35.191200	-1.429270	8.217590
0.510000	-0.127671	255.752000	43.596000	0.202205	0.000000	-1.431690	-19.005100	1.123130	0.773514	-6.221590	316.268000	-52.282500	0.224132	0.000000	-1.013270	34.941900	-1.411600	8.187520
